<?xml version="1.0" standalone="no"?>
<!DOCTYPE svg PUBLIC "-//W3C//DTD SVG 20010904//EN"
 "http://www.w3.org/TR/2001/REC-SVG-20010904/DTD/svg10.dtd">
<svg version="1.0" xmlns="http://www.w3.org/2000/svg"
 width="700.000000pt" height="700.000000pt" viewBox="0 0 700.000000 700.000000"
 preserveAspectRatio="xMidYMid meet">
<metadata>
Created by potrace 1.14, written by Peter Selinger 2001-2017
</metadata>
<g transform="translate(0.000000,700.000000) scale(0.100000,-0.100000)"
fill="#000000" stroke="none">
<path d="M3045 6898 c-255 -267 -514 -540 -615 -648 -23 -25 -104 -110 -180
-190 -76 -80 -155 -163 -175 -185 -21 -22 -109 -114 -195 -205 -86 -91 -177
-186 -201 -212 -54 -57 -134 -141 -350 -368 -92 -96 -182 -191 -200 -211 -33
-36 -279 -295 -369 -389 -25 -26 -104 -110 -177 -186 -72 -77 -151 -159 -175
-185 -401 -422 -399 -420 -396 -435 2 -7 71 -83 154 -171 84 -87 166 -174 184
-193 18 -19 101 -106 184 -194 83 -87 164 -172 180 -190 16 -17 96 -101 177
-186 81 -85 171 -180 199 -210 70 -75 195 -206 299 -315 95 -99 384 -404 450
-475 52 -55 318 -335 423 -445 42 -44 97 -102 123 -130 26 -27 118 -124 204
-214 86 -91 167 -177 181 -191 48 -51 335 -354 425 -448 50 -52 99 -105 110
-117 11 -12 60 -62 108 -112 l88 -91 22 22 c30 31 307 323 347 366 32 34 281
297 370 390 79 83 337 354 370 390 36 39 315 332 370 390 50 51 320 336 370
390 23 25 83 88 133 140 50 52 127 133 171 180 45 48 128 136 186 196 95 99
324 341 440 464 51 54 307 323 390 411 256 269 315 333 318 345 2 7 -7 24 -20
37 -13 13 -93 98 -178 188 -85 90 -190 199 -232 244 -103 108 -185 195 -270
285 -39 41 -142 149 -228 240 -87 91 -177 185 -200 210 -23 25 -108 115 -190
200 -81 85 -162 171 -180 190 -34 36 -278 295 -363 384 -27 28 -113 118 -190
200 -78 82 -158 166 -177 186 -19 20 -71 75 -115 121 -44 47 -125 132 -180
190 -55 58 -170 179 -255 269 -297 313 -338 355 -345 348 -4 -4 -10 -3821 -5
-4175 l0 -32 53 56 c28 31 72 78 97 104 64 66 314 331 393 414 36 39 100 106
142 150 l75 79 0 706 0 705 99 -103 c54 -56 131 -137 171 -180 40 -42 150
-158 244 -257 223 -234 305 -320 356 -375 23 -25 108 -114 188 -198 80 -84
151 -161 158 -170 10 -15 1 -30 -74 -108 -187 -197 -372 -391 -407 -429 -21
-22 -81 -85 -134 -141 -123 -128 -389 -408 -431 -454 -18 -19 -102 -108 -188
-198 -85 -89 -166 -175 -180 -190 -13 -15 -102 -108 -196 -207 -188 -197 -293
-307 -354 -373 -39 -41 -335 -353 -359 -378 -10 -10 -25 0 -75 53 -35 36 -90
94 -123 128 -33 34 -118 125 -190 201 -71 76 -169 178 -216 228 -48 50 -108
114 -135 143 -27 28 -113 118 -190 200 -78 81 -161 168 -184 193 -23 25 -109
115 -190 200 -81 85 -162 171 -180 190 -18 19 -105 112 -195 205 -89 94 -174
184 -189 200 -33 36 -275 290 -403 424 -54 56 -89 100 -85 107 4 7 77 86 163
175 86 90 173 182 193 204 21 22 108 114 194 204 86 90 164 172 173 182 9 10
94 101 190 201 96 100 204 214 241 252 l68 71 0 -705 0 -706 61 -64 c33 -36
129 -137 212 -224 84 -88 190 -200 237 -250 47 -49 122 -128 167 -175 l83 -86
0 520 c1 451 1 3639 0 3673 0 24 -17 11 -95 -70z"/>
</g>
</svg>
