<svg width="200" height="36" viewBox="0 0 200 36" fill="none" xmlns="http://www.w3.org/2000/svg">
<path d="M16.2488 0V21.7492L12.3045 17.6156V10.3586L5.94008 17.0284L18.1031 29.7749V36L0 17.0284L16.2488 0Z" fill="#70FF91"/>
<path d="M19.9574 0V21.7492L23.9018 17.6156V10.3586L30.2662 17.0284L18.1031 29.7749V36L36.2062 17.0284L19.9574 0Z" fill="#70FF91"/>
<path d="M185.482 27.5568H182.383V8.44287H185.712L194.319 19.6259L196.815 23.192H197.045L196.901 19.7401V8.44287H200V27.5568H196.672L188.007 16.4022L185.597 13.0359H185.367L185.482 16.3452V27.5568Z" fill="white"/>
<path d="M168.165 27.5568H165.067V8.44287H174.478C178.753 8.44287 181.679 10.8678 181.679 15.1185C181.679 19.3407 178.753 21.7941 174.478 21.7941H168.165V27.5568ZM174.191 11.2101H168.165V19.0268H174.191C177.088 19.0268 178.58 17.9428 178.58 15.1185C178.58 12.2942 177.088 11.2101 174.191 11.2101Z" fill="white"/>
<path d="M156.694 27.5568H152.304L144.098 8.44287H147.771L154.427 24.4472H154.657L161.256 8.44287H164.9L156.694 27.5568Z" fill="white"/>
<path d="M135.38 27.5566H132.282V13.3781H135.122V17.2008H135.323C135.753 14.9186 137.303 13.0928 140.229 13.0928C143.471 13.0928 144.877 15.4036 144.877 18.0852V19.9395H141.807V18.6843C141.807 16.6588 140.947 15.7174 138.823 15.7174C136.385 15.7174 135.38 17.0582 135.38 19.5972V27.5566Z" fill="white"/>
<path d="M123.233 27.5567C118.499 27.5567 115.314 24.5613 115.314 20.1964C115.314 15.7746 118.499 12.8076 123.233 12.8076C127.996 12.8076 131.181 15.7746 131.181 20.1964C131.181 24.5613 127.996 27.5567 123.233 27.5567ZM123.233 24.818C126.705 24.818 128.14 23.1919 128.14 20.1964C128.14 17.1724 126.705 15.5178 123.233 15.5178C119.79 15.5178 118.356 17.1724 118.356 20.1964C118.356 23.1919 119.79 24.818 123.233 24.818Z" fill="white"/>
<path d="M102.4 27.5568H99.301V8.44287H102.4V17.7145H102.572C103.06 15.3182 104.81 13.093 108.454 13.093C112.384 13.093 114.307 15.6605 114.307 19.1124V27.5568H111.237V19.8542C111.237 17.0013 109.946 15.8602 106.99 15.8602C103.605 15.8602 102.4 17.686 102.4 20.6815V27.5568Z" fill="white"/>
<path d="M90.7547 27.5567C86.0493 27.5567 82.9792 24.5613 82.9792 20.1964C82.9792 15.7746 86.0493 12.8076 90.7547 12.8076C95.0298 12.8076 98.1571 15.204 98.1571 18.7415V19.0268H95.0871V18.8556C95.0871 16.6589 93.4804 15.5749 90.6973 15.5749C87.4838 15.5749 86.0493 17.0869 86.0493 20.1964C86.0493 23.249 87.4838 24.7895 90.6973 24.7895C93.4804 24.7895 95.0871 23.7054 95.0871 21.5087V21.309H98.1571V21.6228C98.1571 25.1603 95.0298 27.5567 90.7547 27.5567Z" fill="white"/>
<path d="M70.1468 27.5566H67.0481V13.3781H69.8886V17.7714H70.0894C70.5198 15.375 72.4134 13.0928 76.0286 13.0928C79.988 13.0928 81.9391 15.7459 81.9391 19.0266V27.5566H78.8404V19.854C78.8404 17.2008 77.6353 15.86 74.6801 15.86C71.5527 15.86 70.1468 17.4576 70.1468 20.5386V27.5566Z" fill="white"/>
<path d="M48.6862 27.5568H45.2432L53.822 8.44287H58.1831L66.7619 27.5568H63.2615L61.0523 22.5929H50.8954L48.6862 27.5568ZM54.7401 14.0059L52.1292 19.8256H59.8185L57.2076 14.0059L56.0886 11.2957H55.8591L54.7401 14.0059Z" fill="white"/>
</svg>
