<svg width="32" height="32" viewBox="0 0 32 32" fill="none" xmlns="http://www.w3.org/2000/svg">
<rect width="32" height="32" rx="16" fill="#314140"/>
<path d="M21.1783 23.4802C20.4183 23.4802 19.7117 23.3536 19.0583 23.1002C18.405 22.8469 17.8317 22.4402 17.3383 21.8802C16.845 21.3202 16.4583 20.5802 16.1783 19.6602C15.9117 18.7269 15.7783 17.5869 15.7783 16.2402V15.8402C15.7783 14.5869 15.9117 13.5269 16.1783 12.6602C16.4583 11.7936 16.845 11.0936 17.3383 10.5602C17.8317 10.0136 18.405 9.62024 19.0583 9.38024C19.7117 9.12691 20.4183 9.00024 21.1783 9.00024C21.9383 9.00024 22.645 9.12691 23.2983 9.38024C23.9517 9.62024 24.525 10.0136 25.0183 10.5602C25.5117 11.0936 25.8917 11.7936 26.1583 12.6602C26.4383 13.5269 26.5783 14.5869 26.5783 15.8402V16.2402C26.5783 17.5869 26.4383 18.7269 26.1583 19.6602C25.8917 20.5802 25.5117 21.3202 25.0183 21.8802C24.525 22.4402 23.9517 22.8469 23.2983 23.1002C22.645 23.3536 21.9383 23.4802 21.1783 23.4802ZM21.1783 20.9602C21.525 20.9602 21.8383 20.8936 22.1183 20.7602C22.4117 20.6136 22.665 20.3669 22.8783 20.0202C23.105 19.6736 23.2783 19.1936 23.3983 18.5802C23.5183 17.9669 23.5783 17.1869 23.5783 16.2402V15.8402C23.5783 14.7069 23.4717 13.8269 23.2583 13.2002C23.045 12.5736 22.7583 12.1402 22.3983 11.9002C22.0383 11.6469 21.6317 11.5202 21.1783 11.5202C20.7117 11.5202 20.2983 11.6469 19.9383 11.9002C19.5917 12.1402 19.3117 12.5736 19.0983 13.2002C18.885 13.8269 18.7783 14.7069 18.7783 15.8402V16.2402C18.7783 17.1869 18.8383 17.9669 18.9583 18.5802C19.0783 19.1936 19.245 19.6736 19.4583 20.0202C19.685 20.3669 19.945 20.6136 20.2383 20.7602C20.5317 20.8936 20.845 20.9602 21.1783 20.9602Z" fill="#70FF91"/>
<path d="M6 23.2402V20.7602H9.2V12.2802L6 14.5602V11.6402L9.38 9.24023H12.2V20.7602H14.8V23.2402H6Z" fill="#70FF91"/>
</svg>
