<svg width="32" height="32" viewBox="0 0 32 32" fill="none" xmlns="http://www.w3.org/2000/svg">
<rect width="32" height="32" rx="16" fill="#314140"/>
<path d="M15.7089 25.0068C14.6849 25.0068 13.8083 24.8749 13.0791 24.6112C12.3498 24.3474 11.7525 23.9906 11.2871 23.5406C10.8216 23.0907 10.4725 22.5787 10.2398 22.0046C10.0226 21.4306 9.9062 20.8255 9.89069 20.1894H13.3816C13.4281 20.7479 13.6376 21.2056 14.01 21.5624C14.3978 21.9038 14.9641 22.0744 15.7089 22.0744C16.5622 22.0744 17.1983 21.834 17.6172 21.353C18.0517 20.872 18.2689 20.1506 18.2689 19.1886C18.2689 18.506 18.1525 17.9629 17.9198 17.5595C17.6871 17.1406 17.3767 16.8458 16.9889 16.6752C16.601 16.489 16.1743 16.3959 15.7089 16.3959C15.1658 16.3959 14.7159 16.4968 14.3591 16.6984C14.0022 16.8846 13.7152 17.1484 13.498 17.4897H10.2398V8.43663H20.8521V11.3224H13.7307V14.3014C14.0565 14.0066 14.4521 13.7971 14.9176 13.673C15.3831 13.5489 15.9183 13.4868 16.5234 13.4868C17.5784 13.4868 18.4938 13.6963 19.2696 14.1152C20.0454 14.5341 20.6504 15.1702 21.0849 16.0235C21.5348 16.8614 21.7598 17.9164 21.7598 19.1886C21.7598 20.3523 21.5038 21.3763 20.9918 22.2606C20.4953 23.1295 19.7971 23.8044 18.8972 24.2854C17.9974 24.7663 16.9346 25.0068 15.7089 25.0068Z" fill="#70FF91"/>
</svg>
