<svg width="32" height="32" viewBox="0 0 32 32" fill="none" xmlns="http://www.w3.org/2000/svg">
<rect width="32" height="32" rx="16" fill="#314140"/>
<path d="M16.5 23.4802C14.7533 23.4802 13.4 22.9602 12.44 21.9202C11.48 20.8669 11 19.1736 11 16.8402V16.4402C11 14.6536 11.24 13.2202 11.72 12.1402C12.2133 11.0469 12.8867 10.2536 13.74 9.76023C14.6067 9.25356 15.5933 9.00023 16.7 9.00023C17.5667 9.00023 18.32 9.12023 18.96 9.36023C19.6133 9.60023 20.14 9.98023 20.54 10.5002C20.94 11.0069 21.1933 11.6802 21.3 12.5202H18.5C18.3667 12.1869 18.14 11.9402 17.82 11.7802C17.5133 11.6069 17.1067 11.5202 16.6 11.5202C16.0667 11.5202 15.6 11.6336 15.2 11.8602C14.8133 12.0736 14.4933 12.4669 14.24 13.0402C14 13.6136 13.8533 14.4536 13.8 15.5602C14.1467 15.0136 14.6333 14.6336 15.26 14.4202C15.9 14.2069 16.5467 14.1002 17.2 14.1002C18.1467 14.1002 18.94 14.2736 19.58 14.6202C20.2333 14.9669 20.7333 15.4669 21.08 16.1202C21.4267 16.7736 21.6 17.5669 21.6 18.5002V18.7202C21.6 19.6669 21.38 20.5002 20.94 21.2202C20.5133 21.9269 19.9133 22.4802 19.14 22.8802C18.3667 23.2802 17.4867 23.4802 16.5 23.4802ZM16.3 20.9602C17.02 20.9602 17.58 20.7602 17.98 20.3602C18.3933 19.9469 18.6 19.4202 18.6 18.7802V18.5802C18.6 17.9402 18.3933 17.4202 17.98 17.0202C17.58 16.6202 17.02 16.4202 16.3 16.4202C15.58 16.4202 15.0133 16.6202 14.6 17.0202C14.2 17.4202 14 17.9402 14 18.5802V18.7802C14 19.4202 14.2 19.9469 14.6 20.3602C15.0133 20.7602 15.58 20.9602 16.3 20.9602Z" fill="#70FF91"/>
</svg>
