<svg width="32" height="32" viewBox="0 0 32 32" fill="none" xmlns="http://www.w3.org/2000/svg">
<path d="M0 11.6635C2.83325 9.37229 6.44032 8 10.3679 8C14.2955 8 17.9025 9.37229 20.7359 11.6635L19.0079 13.8029C16.6468 11.8936 13.6409 10.75 10.3679 10.75C7.09492 10.75 4.08903 11.8936 1.72799 13.8029L0 11.6635ZM2.87997 15.2292C4.92621 13.5744 7.53132 12.5833 10.3679 12.5833C13.2045 12.5833 15.8096 13.5744 17.8559 15.2292L16.1279 17.3686C14.5539 16.0957 12.5499 15.3333 10.3679 15.3333C8.18591 15.3333 6.18199 16.0957 4.60796 17.3686L2.87997 15.2292ZM5.75995 18.7949C7.01917 17.7765 8.6223 17.1667 10.3679 17.1667C12.1135 17.1667 13.7167 17.7765 14.9759 18.7949L13.2479 20.9344C12.4608 20.2978 11.4589 19.9167 10.3679 19.9167C9.27689 19.9167 8.27495 20.2978 7.48794 20.9344L5.75995 18.7949ZM8.6399 22.3606C9.11217 21.9787 9.71332 21.75 10.3679 21.75C11.0225 21.75 11.6237 21.9787 12.0959 22.3606L10.3679 24.5L8.6399 22.3606Z" fill="#8CA2A0"/>
</svg>
