<svg width="32" height="32" viewBox="0 0 32 32" fill="none" xmlns="http://www.w3.org/2000/svg">
<path fill-rule="evenodd" clip-rule="evenodd" d="M10.987 8.5C10.987 5.5 12.487 4 15.487 4C15.487 7 13.987 8.5 10.987 8.5ZM9.66 10.133C9.018 9.838 8.282 9.5 7.323 9.5C5.194 9.5 2 11.629 2 15.887C2 20.145 4.7 26 7.323 26C8.121 26 8.653 25.734 9.186 25.468C9.718 25.202 10.25 24.936 11.049 24.936C11.847 24.936 12.512 25.202 13.178 25.468C13.843 25.734 14.508 26 15.307 26C17.142 26 19.014 23.136 19.973 19.956C19.091 19.636 17.327 17.985 17.327 15.887C17.327 13.181 18.564 11.964 19.182 11.557C18.067 10.186 16.515 9.5 15.307 9.5C14.347 9.5 13.443 9.838 12.653 10.133C12.04 10.361 11.496 10.565 11.049 10.565C10.601 10.565 10.159 10.361 9.66 10.133Z" fill="#8CA2A0"/>
</svg>
