<svg width="32" height="32" viewBox="0 0 32 32" fill="none" xmlns="http://www.w3.org/2000/svg">
<rect width="32" height="32" rx="16" fill="#314140"/>
<path d="M16 23.4802C15.12 23.4802 14.3467 23.3536 13.68 23.1002C13.0133 22.8469 12.48 22.4602 12.08 21.9402C11.68 21.4069 11.42 20.7469 11.3 19.9602H14.1C14.22 20.2936 14.4333 20.5469 14.74 20.7202C15.0467 20.8802 15.5 20.9602 16.1 20.9602C16.5933 20.9602 17.0333 20.8536 17.42 20.6402C17.8067 20.4136 18.12 20.0136 18.36 19.4402C18.6133 18.8536 18.76 18.0136 18.8 16.9202C18.4667 17.4669 17.98 17.8469 17.34 18.0602C16.7 18.2736 16.06 18.3802 15.42 18.3802C14.4867 18.3802 13.6867 18.2069 13.02 17.8602C12.3533 17.5136 11.8467 17.0136 11.5 16.3602C11.1667 15.6936 11 14.9002 11 13.9802V13.7602C11 12.8136 11.2133 11.9869 11.64 11.2802C12.08 10.5602 12.6867 10.0002 13.46 9.60024C14.2333 9.20024 15.1133 9.00024 16.1 9.00024C17.2733 9.00024 18.2667 9.22691 19.08 9.68024C19.9067 10.1336 20.5333 10.8469 20.96 11.8202C21.3867 12.7936 21.6 14.0669 21.6 15.6402V16.0202C21.6 17.8069 21.3533 19.2469 20.86 20.3402C20.38 21.4336 19.72 22.2336 18.88 22.7402C18.04 23.2336 17.08 23.4802 16 23.4802ZM16.3 16.0602C17.02 16.0602 17.58 15.8602 17.98 15.4602C18.3933 15.0602 18.6 14.5402 18.6 13.9002V13.7002C18.6 13.0736 18.3867 12.5536 17.96 12.1402C17.5467 11.7269 16.9933 11.5202 16.3 11.5202C15.58 11.5202 15.0133 11.7269 14.6 12.1402C14.2 12.5402 14 13.0602 14 13.7002V13.9002C14 14.5402 14.2 15.0602 14.6 15.4602C15.0133 15.8602 15.58 16.0602 16.3 16.0602Z" fill="#70FF91"/>
</svg>
