<svg width="32" height="32" viewBox="0 0 32 32" fill="none" xmlns="http://www.w3.org/2000/svg">
<rect width="32" height="32" rx="16" fill="#314140"/>
<path d="M10.1816 23.8426V21.3059L15.8835 16.3954C16.5972 15.7592 17.1635 15.2395 17.5824 14.8361C18.0168 14.4172 18.3271 14.0216 18.5133 13.6492C18.6995 13.2768 18.7926 12.8734 18.7926 12.439C18.7926 11.7719 18.6064 11.2366 18.234 10.8332C17.8772 10.4143 17.3264 10.2048 16.5816 10.2048C15.7283 10.2048 15.0689 10.4376 14.6035 10.903C14.138 11.3529 13.9053 12.1287 13.9053 13.2303H10.4144C10.4144 12.0046 10.6471 10.9496 11.1125 10.0652C11.578 9.16531 12.2684 8.47488 13.1838 7.99391C14.1147 7.51295 15.2473 7.27246 16.5816 7.27246C17.8229 7.27246 18.8701 7.49743 19.7235 7.94737C20.5768 8.38179 21.2129 8.98688 21.6318 9.76264C22.0662 10.5384 22.2835 11.4305 22.2835 12.439C22.2835 13.1837 22.105 13.8819 21.7482 14.5336C21.4069 15.1852 20.9492 15.8058 20.3751 16.3954C19.801 16.9849 19.1572 17.5745 18.4435 18.1641L15.0922 20.9568H22.5162V23.8426H10.1816Z" fill="#70FF91"/>
</svg>
