<svg width="32" height="32" viewBox="0 0 32 32" fill="none" xmlns="http://www.w3.org/2000/svg">
<rect width="32" height="32" rx="16" fill="#314140"/>
<path d="M16.4 23.4802C15.28 23.4802 14.3133 23.3136 13.5 22.9802C12.7 22.6469 12.08 22.1736 11.64 21.5602C11.2133 20.9469 11 20.2336 11 19.4202C11 18.6336 11.24 17.9336 11.72 17.3202C12.2 16.6936 12.9133 16.2536 13.86 16.0002C13.1533 15.7736 12.5667 15.3802 12.1 14.8202C11.6333 14.2602 11.4 13.5869 11.4 12.8002C11.4 12.0669 11.5933 11.4136 11.98 10.8402C12.3667 10.2669 12.9267 9.82024 13.66 9.50024C14.4067 9.16691 15.32 9.00024 16.4 9.00024C17.4667 9.00024 18.3733 9.16691 19.12 9.50024C19.8667 9.82024 20.4333 10.2669 20.82 10.8402C21.22 11.4136 21.42 12.0669 21.42 12.8002C21.42 13.5869 21.18 14.2536 20.7 14.8002C20.2333 15.3336 19.6467 15.7336 18.94 16.0002C19.8867 16.2936 20.6 16.7269 21.08 17.3002C21.56 17.8602 21.8 18.5669 21.8 19.4202C21.8 20.2336 21.5867 20.9469 21.16 21.5602C20.7333 22.1736 20.1133 22.6469 19.3 22.9802C18.5 23.3136 17.5333 23.4802 16.4 23.4802ZM16.4 20.9602C16.96 20.9602 17.4133 20.8869 17.76 20.7402C18.12 20.5936 18.38 20.3869 18.54 20.1202C18.7133 19.8536 18.8 19.5402 18.8 19.1802C18.8 18.5802 18.5733 18.1069 18.12 17.7602C17.68 17.4002 17.1067 17.1669 16.4 17.0602C15.6933 17.1669 15.1133 17.4002 14.66 17.7602C14.22 18.1069 14 18.5802 14 19.1802C14 19.5402 14.0867 19.8536 14.26 20.1202C14.4467 20.3869 14.7133 20.5936 15.06 20.7402C15.42 20.8869 15.8667 20.9602 16.4 20.9602ZM16.4 15.0202C17 14.9136 17.4867 14.7069 17.86 14.4002C18.2333 14.0802 18.42 13.6402 18.42 13.0802C18.42 12.5602 18.24 12.1736 17.88 11.9202C17.5333 11.6536 17.04 11.5202 16.4 11.5202C15.7733 11.5202 15.28 11.6536 14.92 11.9202C14.5733 12.1736 14.4 12.5602 14.4 13.0802C14.4 13.6402 14.58 14.0802 14.94 14.4002C15.3133 14.7069 15.8 14.9136 16.4 15.0202Z" fill="#70FF91"/>
</svg>
