<svg width="32" height="32" viewBox="0 0 32 32" fill="none" xmlns="http://www.w3.org/2000/svg">
<g clip-path="url(#clip0_60_1468)">
<path d="M9.16667 25.1668C4.10405 25.1668 0 21.0627 0 16.0002C0 10.9376 4.10405 6.8335 9.16667 6.8335C14.2292 6.8335 18.3333 10.9376 18.3333 16.0002C18.3333 21.0627 14.2292 25.1668 9.16667 25.1668ZM9.16667 23.3335C13.2168 23.3335 16.5 20.0503 16.5 16.0002C16.5 11.9501 13.2168 8.66683 9.16667 8.66683C5.11658 8.66683 1.83333 11.9501 1.83333 16.0002C1.83333 20.0503 5.11658 23.3335 9.16667 23.3335ZM10.0833 16.0002H13.75V17.8335H8.25V11.4168H10.0833V16.0002Z" fill="#8CA2A0"/>
</g>
<defs>
<clipPath id="clip0_60_1468">
<rect width="22" height="22" fill="white" transform="translate(0 5)"/>
</clipPath>
</defs>
</svg>
