<svg width="32" height="32" viewBox="0 0 32 32" fill="none" xmlns="http://www.w3.org/2000/svg">
<rect width="32" height="32" rx="16" fill="#314140"/>
<path d="M20.678 23.4802C19.5447 23.4802 18.5914 23.3002 17.818 22.9402C17.0447 22.5669 16.458 22.0402 16.058 21.3602C15.6714 20.6802 15.478 19.8736 15.478 18.9402H18.478C18.478 19.6202 18.6514 20.1269 18.998 20.4602C19.3447 20.7936 19.9047 20.9602 20.678 20.9602C21.4114 20.9602 21.958 20.8002 22.318 20.4802C22.6914 20.1469 22.878 19.6802 22.878 19.0802C22.878 18.4536 22.6914 17.9802 22.318 17.6602C21.958 17.3402 21.4114 17.1802 20.678 17.1802H19.358V14.9002H20.678C21.318 14.9002 21.8114 14.7669 22.158 14.5002C22.5047 14.2202 22.678 13.7936 22.678 13.2202C22.678 12.7269 22.5114 12.3202 22.178 12.0002C21.8447 11.6802 21.3447 11.5202 20.678 11.5202C19.998 11.5202 19.4914 11.6736 19.158 11.9802C18.838 12.2869 18.678 12.7402 18.678 13.3402H15.678C15.678 12.4202 15.858 11.6402 16.218 11.0002C16.5914 10.3469 17.1514 9.85358 17.898 9.52024C18.6447 9.17358 19.5714 9.00024 20.678 9.00024C21.7847 9.00024 22.7114 9.16691 23.458 9.50024C24.2047 9.83358 24.758 10.2869 25.118 10.8602C25.4914 11.4336 25.678 12.0802 25.678 12.8002C25.678 13.5869 25.458 14.2536 25.018 14.8002C24.5914 15.3336 24.018 15.7136 23.298 15.9402C24.1247 16.1669 24.758 16.5669 25.198 17.1402C25.6514 17.7002 25.878 18.4336 25.878 19.3402C25.878 20.1402 25.6647 20.8536 25.238 21.4802C24.8247 22.0936 24.2314 22.5802 23.458 22.9402C22.6847 23.3002 21.758 23.4802 20.678 23.4802Z" fill="#70FF91"/>
<path d="M6 23.2402V20.7602H9.2V12.2802L6 14.5602V11.6402L9.38 9.24023H12.2V20.7602H14.8V23.2402H6Z" fill="#70FF91"/>
</svg>
