<svg width="32" height="32" viewBox="0 0 32 32" fill="none" xmlns="http://www.w3.org/2000/svg">
<rect width="32" height="32" rx="16" fill="#314140"/>
<path d="M15.5925 25.0068C14.2737 25.0068 13.1644 24.7974 12.2645 24.3784C11.3646 23.944 10.682 23.3312 10.2165 22.5399C9.76657 21.7486 9.5416 20.81 9.5416 19.7239H13.0325C13.0325 20.5152 13.2342 21.1048 13.6376 21.4926C14.041 21.8805 14.6926 22.0744 15.5925 22.0744C16.4458 22.0744 17.082 21.8883 17.5009 21.5159C17.9353 21.128 18.1525 20.585 18.1525 19.8868C18.1525 19.1576 17.9353 18.6068 17.5009 18.2344C17.082 17.8621 16.4458 17.6759 15.5925 17.6759H14.0565V15.0228H15.5925C16.3372 15.0228 16.9113 14.8677 17.3147 14.5574C17.7181 14.2315 17.9198 13.7351 17.9198 13.0679C17.9198 12.4938 17.7258 12.0206 17.338 11.6483C16.9501 11.2759 16.3683 11.0897 15.5925 11.0897C14.8012 11.0897 14.2117 11.2681 13.8238 11.625C13.4514 11.9818 13.2652 12.5094 13.2652 13.2075H9.77432C9.77432 12.137 9.98378 11.2294 10.4027 10.4846C10.8371 9.72439 11.4887 9.15033 12.3576 8.76245C13.2264 8.35905 14.3047 8.15736 15.5925 8.15736C16.8803 8.15736 17.9586 8.3513 18.8274 8.73918C19.6963 9.12705 20.3401 9.65457 20.7591 10.3217C21.1935 10.9889 21.4107 11.7414 21.4107 12.5792C21.4107 13.4946 21.1547 14.2703 20.6427 14.9064C20.1462 15.5271 19.4791 15.9692 18.6412 16.233C19.6032 16.4968 20.3401 16.9622 20.8521 17.6294C21.3797 18.281 21.6434 19.1343 21.6434 20.1894C21.6434 21.1203 21.3952 21.9503 20.8987 22.6795C20.4177 23.3932 19.7273 23.9595 18.8274 24.3784C17.9275 24.7974 16.8492 25.0068 15.5925 25.0068Z" fill="#70FF91"/>
</svg>
