<svg width="32" height="32" viewBox="0 0 32 32" fill="none" xmlns="http://www.w3.org/2000/svg">
<g clip-path="url(#clip0_60_1861)">
<path d="M14.6667 25.25H12.8333V23.4167C12.8333 21.8978 11.6022 20.6667 10.0833 20.6667H4.58333C3.06455 20.6667 1.83333 21.8978 1.83333 23.4167V25.25H0V23.4167C0 20.8854 2.05203 18.8333 4.58333 18.8333H10.0833C12.6146 18.8333 14.6667 20.8854 14.6667 23.4167V25.25ZM7.33333 17C4.29577 17 1.83333 14.5376 1.83333 11.5C1.83333 8.46243 4.29577 6 7.33333 6C10.3709 6 12.8333 8.46243 12.8333 11.5C12.8333 14.5376 10.3709 17 7.33333 17ZM7.33333 15.1667C9.35834 15.1667 11 13.525 11 11.5C11 9.47496 9.35834 7.83333 7.33333 7.83333C5.30829 7.83333 3.66667 9.47496 3.66667 11.5C3.66667 13.525 5.30829 15.1667 7.33333 15.1667Z" fill="#8CA2A0"/>
</g>
<defs>
<clipPath id="clip0_60_1861">
<rect width="22" height="22" fill="white" transform="translate(0 5)"/>
</clipPath>
</defs>
</svg>
