<svg width="32" height="32" viewBox="0 0 32 32" fill="none" xmlns="http://www.w3.org/2000/svg">
<path d="M11 5C17.0753 5 22 9.92465 22 16C22 22.0753 17.0753 27 11 27C4.92465 27 0 22.0753 0 16C0 9.92465 4.92465 5 11 5ZM14.7945 20.4837C14.9968 19.8629 15.9447 13.6761 16.0619 12.457C16.0973 12.0878 15.9806 11.8425 15.752 11.733C15.4756 11.6 15.0662 11.6665 14.5913 11.8377C13.9399 12.0725 5.61239 15.6083 5.13126 15.813C4.675 16.0067 4.24361 16.2181 4.24361 16.5242C4.24361 16.7394 4.3713 16.8604 4.7233 16.9862C5.08965 17.1167 6.01222 17.3965 6.55696 17.5467C7.08161 17.6916 7.67896 17.5658 8.01374 17.3578C8.36861 17.1373 12.464 14.3969 12.7581 14.1568C13.0517 13.9167 13.2861 14.2242 13.046 14.4648C12.8059 14.7049 9.9947 17.4333 9.62404 17.8112C9.174 18.2698 9.49348 18.7452 9.79526 18.9356C10.1401 19.1527 12.6199 20.8161 12.9934 21.083C13.3669 21.3498 13.7457 21.4708 14.0924 21.4708C14.4392 21.4708 14.6219 21.0141 14.7945 20.4837Z" fill="#8CA2A0"/>
</svg>
