<svg width="32" height="32" viewBox="0 0 32 32" fill="none" xmlns="http://www.w3.org/2000/svg">
<path fill-rule="evenodd" clip-rule="evenodd" d="M8.406 6.06802C8.31938 5.91429 8.17697 5.79975 8.00824 5.74811C7.83951 5.69647 7.65739 5.71167 7.49957 5.79058C7.34175 5.8695 7.22031 6.00607 7.16038 6.17203C7.10046 6.338 7.10665 6.52065 7.17766 6.68218L7.94491 8.2176C7.33365 8.62607 6.81043 9.15286 6.40612 9.76688C6.00182 10.3809 5.72463 11.0697 5.59091 11.7926L5.491 12.3334H16.5093L16.4094 11.7926C16.2757 11.0697 15.9985 10.3809 15.5942 9.76688C15.1899 9.15286 14.6666 8.62607 14.0554 8.2176L14.8236 6.68218C14.9033 6.51926 14.9155 6.33139 14.8573 6.15956C14.7992 5.98771 14.6755 5.84581 14.5132 5.76478C14.3509 5.68375 14.1631 5.67015 13.9909 5.72695C13.8185 5.78375 13.6757 5.90635 13.5934 6.06802L12.8262 7.60252C12.2395 7.39628 11.622 7.2912 11.0002 7.29177C10.3783 7.2912 9.76083 7.39628 9.17416 7.60252L8.406 6.06802ZM3.2085 13.2501C2.84383 13.2501 2.49408 13.395 2.23622 13.6528C1.97837 13.9107 1.8335 14.2605 1.8335 14.6251V19.2084C1.8335 19.5731 1.97837 19.9229 2.23622 20.1807C2.49408 20.4386 2.84383 20.5834 3.2085 20.5834C3.57316 20.5834 3.92291 20.4386 4.18077 20.1807C4.43863 19.9229 4.5835 19.5731 4.5835 19.2084V14.6251C4.5835 14.2605 4.43863 13.9107 4.18077 13.6528C3.92291 13.395 3.57316 13.2501 3.2085 13.2501ZM18.7918 13.2501C18.4272 13.2501 18.0774 13.395 17.8195 13.6528C17.5617 13.9107 17.4168 14.2605 17.4168 14.6251V19.2084C17.4168 19.5731 17.5617 19.9229 17.8195 20.1807C18.0774 20.4386 18.4272 20.5834 18.7918 20.5834C19.1565 20.5834 19.5063 20.4386 19.7641 20.1807C20.022 19.9229 20.1668 19.5731 20.1668 19.2084V14.6251C20.1668 14.2605 20.022 13.9107 19.7641 13.6528C19.5063 13.395 19.1565 13.2501 18.7918 13.2501ZM16.5002 13.2501H5.50016V21.0418C5.50016 21.4064 5.64503 21.7562 5.90289 22.0141C6.16075 22.2719 6.51049 22.4168 6.87516 22.4168H7.3335V24.7084C7.3335 25.0731 7.47837 25.4229 7.73622 25.6807C7.99408 25.9386 8.34383 26.0834 8.7085 26.0834C9.07316 26.0834 9.42295 25.9386 9.68081 25.6807C9.93866 25.4229 10.0835 25.0731 10.0835 24.7084V22.4168H11.9168V24.7084C11.9168 25.0731 12.0617 25.4229 12.3195 25.6807C12.5774 25.9386 12.9272 26.0834 13.2918 26.0834C13.6565 26.0834 14.0063 25.9386 14.2641 25.6807C14.522 25.4229 14.6668 25.0731 14.6668 24.7084V22.4168H15.1252C15.4898 22.4168 15.8396 22.2719 16.0975 22.0141C16.3553 21.7562 16.5002 21.4064 16.5002 21.0418V13.2501Z" fill="#8CA2A0"/>
</svg>
