<svg width="32" height="32" viewBox="0 0 32 32" fill="none" xmlns="http://www.w3.org/2000/svg">
<path d="M12.1871 11.6473L13.7699 13.2301C16.8294 16.2897 16.8294 21.2501 13.7699 24.3097L13.3742 24.7053C10.3147 27.7649 5.35418 27.7649 2.29465 24.7053C-0.764883 21.6459 -0.764883 16.6853 2.29465 13.6258L3.87745 15.2087C1.69207 17.394 1.69207 20.9372 3.87745 23.1226C6.06283 25.3079 9.60598 25.3079 11.7914 23.1226L12.1871 22.7269C14.3724 20.5414 14.3724 16.9983 12.1871 14.8129L10.6043 13.2301L12.1871 11.6473ZM19.7053 18.3742L18.1226 16.7914C20.3079 14.606 20.3079 11.0628 18.1226 8.87745C15.9372 6.69207 12.394 6.69207 10.2087 8.87745L9.81292 9.27314C7.62754 11.4585 7.62754 15.0017 9.81292 17.1871L11.3957 18.7699L9.81292 20.3526L8.23012 18.7699C5.17059 15.7104 5.17059 10.7499 8.23012 7.69035L8.62582 7.29465C11.6853 4.23512 16.6459 4.23512 19.7053 7.29465C22.7649 10.3542 22.7649 15.3147 19.7053 18.3742Z" fill="#8CA2A0"/>
</svg>
