<svg width="32" height="32" viewBox="0 0 32 32" fill="none" xmlns="http://www.w3.org/2000/svg">
<path d="M10.083 15.0835V11.4168H11.9163V15.0835H15.583V16.9168H11.9163V20.5835H10.083V16.9168H6.41634V15.0835H10.083ZM10.9997 25.1668C5.93706 25.1668 1.83301 21.0627 1.83301 16.0002C1.83301 10.9376 5.93706 6.8335 10.9997 6.8335C16.0622 6.8335 20.1663 10.9376 20.1663 16.0002C20.1663 21.0627 16.0622 25.1668 10.9997 25.1668ZM10.9997 23.3335C15.0498 23.3335 18.333 20.0503 18.333 16.0002C18.333 11.9501 15.0498 8.66683 10.9997 8.66683C6.94958 8.66683 3.66634 11.9501 3.66634 16.0002C3.66634 20.0503 6.94958 23.3335 10.9997 23.3335Z" fill="#8CA2A0"/>
</svg>
