<svg width="32" height="32" viewBox="0 0 32 32" fill="none" xmlns="http://www.w3.org/2000/svg">
<rect width="32" height="32" rx="16" fill="#314140"/>
<path d="M15.3779 23.2402V21.0602L20.2779 16.8402C20.8913 16.2936 21.3779 15.8469 21.7379 15.5002C22.1113 15.1402 22.3779 14.8002 22.5379 14.4802C22.6979 14.1602 22.7779 13.8136 22.7779 13.4402C22.7779 12.8669 22.6179 12.4069 22.2979 12.0602C21.9913 11.7002 21.5179 11.5202 20.8779 11.5202C20.1446 11.5202 19.5779 11.7202 19.1779 12.1202C18.7779 12.5069 18.5779 13.1736 18.5779 14.1202H15.5779C15.5779 13.0669 15.7779 12.1602 16.1779 11.4002C16.5779 10.6269 17.1713 10.0336 17.9579 9.62024C18.7579 9.20691 19.7313 9.00024 20.8779 9.00024C21.9446 9.00024 22.8446 9.19358 23.5779 9.58024C24.3113 9.95358 24.8579 10.4736 25.2179 11.1402C25.5913 11.8069 25.7779 12.5736 25.7779 13.4402C25.7779 14.0802 25.6246 14.6802 25.3179 15.2402C25.0246 15.8002 24.6313 16.3336 24.1379 16.8402C23.6446 17.3469 23.0913 17.8536 22.4779 18.3602L19.5979 20.7602H25.9779V23.2402H15.3779Z" fill="#70FF91"/>
<path d="M6 23.2402V20.7602H9.2V12.2802L6 14.5602V11.6402L9.38 9.24023H12.2V20.7602H14.8V23.2402H6Z" fill="#70FF91"/>
</svg>
