<svg width="470" height="36" viewBox="0 0 470 36" fill="none" xmlns="http://www.w3.org/2000/svg">
<path d="M151.249 0V21.7492L147.304 17.6156V10.3586L140.94 17.0284L153.103 29.7749V36L135 17.0284L151.249 0Z" fill="#70FF91"/>
<path d="M154.957 0V21.7492L158.902 17.6156V10.3586L165.266 17.0284L153.103 29.7749V36L171.206 17.0284L154.957 0Z" fill="#70FF91"/>
<path d="M320.482 27.5568H317.383V8.44287H320.712L329.319 19.6259L331.815 23.192H332.045L331.901 19.7401V8.44287H335V27.5568H331.672L323.007 16.4022L320.597 13.0359H320.367L320.482 16.3452V27.5568Z" fill="white"/>
<path d="M303.165 27.5568H300.067V8.44287H309.478C313.753 8.44287 316.679 10.8678 316.679 15.1185C316.679 19.3407 313.753 21.7941 309.478 21.7941H303.165V27.5568ZM309.191 11.2101H303.165V19.0268H309.191C312.088 19.0268 313.58 17.9428 313.58 15.1185C313.58 12.2942 312.088 11.2101 309.191 11.2101Z" fill="white"/>
<path d="M291.694 27.5568H287.304L279.098 8.44287H282.771L289.427 24.4472H289.657L296.256 8.44287H299.9L291.694 27.5568Z" fill="white"/>
<path d="M270.38 27.5566H267.282V13.3781H270.122V17.2008H270.323C270.753 14.9186 272.303 13.0928 275.229 13.0928C278.471 13.0928 279.877 15.4036 279.877 18.0852V19.9395H276.807V18.6843C276.807 16.6588 275.947 15.7174 273.823 15.7174C271.385 15.7174 270.38 17.0582 270.38 19.5972V27.5566Z" fill="white"/>
<path d="M258.233 27.5567C253.499 27.5567 250.314 24.5613 250.314 20.1964C250.314 15.7746 253.499 12.8076 258.233 12.8076C262.996 12.8076 266.181 15.7746 266.181 20.1964C266.181 24.5613 262.996 27.5567 258.233 27.5567ZM258.233 24.818C261.705 24.818 263.14 23.1919 263.14 20.1964C263.14 17.1724 261.705 15.5178 258.233 15.5178C254.79 15.5178 253.356 17.1724 253.356 20.1964C253.356 23.1919 254.79 24.818 258.233 24.818Z" fill="white"/>
<path d="M237.4 27.5568H234.301V8.44287H237.4V17.7145H237.572C238.06 15.3182 239.81 13.093 243.454 13.093C247.384 13.093 249.307 15.6605 249.307 19.1124V27.5568H246.237V19.8542C246.237 17.0013 244.946 15.8602 241.99 15.8602C238.605 15.8602 237.4 17.686 237.4 20.6815V27.5568Z" fill="white"/>
<path d="M225.755 27.5567C221.049 27.5567 217.979 24.5613 217.979 20.1964C217.979 15.7746 221.049 12.8076 225.755 12.8076C230.03 12.8076 233.157 15.204 233.157 18.7415V19.0268H230.087V18.8556C230.087 16.6589 228.48 15.5749 225.697 15.5749C222.484 15.5749 221.049 17.0869 221.049 20.1964C221.049 23.249 222.484 24.7895 225.697 24.7895C228.48 24.7895 230.087 23.7054 230.087 21.5087V21.309H233.157V21.6228C233.157 25.1603 230.03 27.5567 225.755 27.5567Z" fill="white"/>
<path d="M205.147 27.5566H202.048V13.3781H204.889V17.7714H205.089C205.52 15.375 207.413 13.0928 211.029 13.0928C214.988 13.0928 216.939 15.7459 216.939 19.0266V27.5566H213.84V19.854C213.84 17.2008 212.635 15.86 209.68 15.86C206.553 15.86 205.147 17.4576 205.147 20.5386V27.5566Z" fill="white"/>
<path d="M183.686 27.5568H180.243L188.822 8.44287H193.183L201.762 27.5568H198.262L196.052 22.5929H185.895L183.686 27.5568ZM189.74 14.0059L187.129 19.8256H194.819L192.208 14.0059L191.089 11.2957H190.859L189.74 14.0059Z" fill="white"/>
</svg>
