<svg width="32" height="32" viewBox="0 0 32 32" fill="none" xmlns="http://www.w3.org/2000/svg">
<path d="M2.0625 7.55609V24.4428C2.06261 24.4794 2.07354 24.5152 2.09391 24.5457C2.11428 24.5761 2.14319 24.5999 2.17701 24.614C2.21083 24.6281 2.24806 24.6319 2.28402 24.6249C2.31999 24.6179 2.35309 24.6004 2.37918 24.5747L11.1719 15.9999L2.37918 7.42417C2.35309 7.39845 2.31999 7.381 2.28402 7.37402C2.24806 7.36703 2.21083 7.37082 2.17701 7.38491C2.14319 7.399 2.11428 7.42276 2.09391 7.45321C2.07354 7.48366 2.06261 7.51945 2.0625 7.55609Z" fill="#8CA2A0"/>
<path d="M14.8588 12.4767L3.83389 6.40263L3.82701 6.39876C3.63709 6.29564 3.45662 6.55259 3.61217 6.70212L12.2545 14.9659L14.8588 12.4767Z" fill="#8CA2A0"/>
<path d="M3.61267 25.2978C3.45627 25.4473 3.63674 25.7043 3.82752 25.6012L3.83439 25.5973L14.8585 19.5232L12.2541 17.0332L3.61267 25.2978Z" fill="#8CA2A0"/>
<path d="M19.3095 14.926L16.2307 13.2305L13.3359 16.0002L16.2307 18.7687L19.3095 17.0745C20.1469 16.6117 20.1469 15.3888 19.3095 14.926Z" fill="#8CA2A0"/>
</svg>
