<svg width="32" height="32" viewBox="0 0 32 32" fill="none" xmlns="http://www.w3.org/2000/svg">
<path d="M3.6665 18.75V12.7917C3.6665 10.5135 5.51333 8.66667 7.7915 8.66667C10.0697 8.66667 11.9165 10.5135 11.9165 12.7917V19.2083C11.9165 20.474 12.9425 21.5 14.2082 21.5C15.4738 21.5 16.4998 20.474 16.4998 19.2083V13.0935C15.4317 12.716 14.6665 11.6974 14.6665 10.5C14.6665 8.98122 15.8977 7.75 17.4165 7.75C18.9353 7.75 20.1665 8.98122 20.1665 10.5C20.1665 11.6974 19.4013 12.716 18.3332 13.0935V19.2083C18.3332 21.4865 16.4864 23.3333 14.2082 23.3333C11.93 23.3333 10.0832 21.4865 10.0832 19.2083V12.7917C10.0832 11.526 9.05715 10.5 7.7915 10.5C6.52585 10.5 5.49984 11.526 5.49984 12.7917V18.75H8.24984L4.58317 23.3333L0.916504 18.75H3.6665ZM17.4165 11.4167C17.9228 11.4167 18.3332 11.0063 18.3332 10.5C18.3332 9.99374 17.9228 9.58333 17.4165 9.58333C16.9102 9.58333 16.4998 9.99374 16.4998 10.5C16.4998 11.0063 16.9102 11.4167 17.4165 11.4167Z" fill="#FFFFFF"/>
</svg>
